M48
INCH,TZ
M72
T06C0.035400
%
T07C0.047200
%
T08C0.100394
%
T06
X1600Y17109
X1600Y18291
X21285Y17109
X21285Y18291
X40970Y17109
X40970Y18291
X60655Y17109
X60655Y18291
X80340Y17109
X80340Y18291
X100025Y17109
X100025Y18291
T07
X19400Y15531
X20385Y15531
X17432Y17500
X19400Y19469
X20385Y19469
X39085Y15531
X40070Y15531
X37117Y17500
X39085Y19469
X40070Y19469
X58770Y15531
X59755Y15531
X56802Y17500
X58770Y19469
X59755Y19469
X78455Y15531
X79440Y15531
X76487Y17500
X78455Y19469
X79440Y19469
X98140Y15531
X99125Y15531
X96172Y17500
X98140Y19469
X99125Y19469
X117825Y15531
X118810Y15531
X115857Y17500
X117825Y19469
X118810Y19469
T08
X2968Y-968
X2968Y22653
X117141Y-968
X117141Y22653
M30
