G75*
G70*
%OFA0B0*%
%FSLAX25Y25*%
%IPPOS*%
%LPD*%
%AMOC8*
5,1,8,0,0,1.08239X$1,22.5*
%
%ADD19C,0.05120*%
%ADD39C,0.09000*%
%ADD42R,0.05550X0.05550*%
%ADD50C,0.03940*%
%ADD51C,0.05550*%
%ADD70C,0.20400*%
%ADD76C,0.07800*%
%ADD88C,0.15000*%
X0010000Y0010000D02*
G75*
%LPD*%
D76*
X0022000Y0017000D03*
X0032000Y0017000D03*
X0042000Y0017000D03*
X0052000Y0017000D03*
X0062000Y0017000D03*
X0072000Y0017000D03*
X0170000Y0060940D03*
X0170000Y0069960D03*
X0178000Y0074450D03*
X0186000Y0069960D03*
X0178000Y0065430D03*
X0186000Y0060940D03*
X0186000Y0078980D03*
X0178000Y0083460D03*
X0186000Y0087990D03*
X0178000Y0092480D03*
X0186000Y0097010D03*
X0178000Y0101500D03*
X0170000Y0097010D03*
X0170000Y0087990D03*
X0170000Y0078980D03*
D70*
X0178000Y0030790D03*
X0178000Y0129210D03*
D39*
X0174320Y0155310D03*
X0174320Y0165160D03*
X0194000Y0175000D03*
X0174320Y0184840D03*
X0174320Y0194690D03*
D19*
X0194000Y0194690D03*
X0203850Y0194690D03*
X0174320Y0175000D03*
X0194000Y0155310D03*
X0203850Y0155310D03*
D42*
X0103000Y0189000D03*
X0093000Y0199000D03*
X0057000Y0199000D03*
D51*
X0047000Y0199000D03*
X0093000Y0189000D03*
X0103000Y0199000D03*
X0113000Y0199000D03*
X0123000Y0199000D03*
X0133000Y0199000D03*
X0133000Y0189000D03*
X0123000Y0189000D03*
X0113000Y0189000D03*
D50*
X0016000Y0182910D03*
X0016000Y0171090D03*
X0206850Y0010000D02*
G75*
%LPD*%
D76*
X0218850Y0017000D03*
X0228850Y0017000D03*
X0238850Y0017000D03*
X0248850Y0017000D03*
X0258850Y0017000D03*
X0268850Y0017000D03*
X0366850Y0060940D03*
X0366850Y0069960D03*
X0374850Y0074450D03*
X0382850Y0069960D03*
X0374850Y0065430D03*
X0382850Y0060940D03*
X0382850Y0078980D03*
X0374850Y0083460D03*
X0382850Y0087990D03*
X0374850Y0092480D03*
X0382850Y0097010D03*
X0374850Y0101500D03*
X0366850Y0097010D03*
X0366850Y0087990D03*
X0366850Y0078980D03*
D70*
X0374850Y0030790D03*
X0374850Y0129210D03*
D39*
X0371170Y0155310D03*
X0371170Y0165160D03*
X0390850Y0175000D03*
X0371170Y0184840D03*
X0371170Y0194690D03*
D19*
X0390850Y0194690D03*
X0400700Y0194690D03*
X0371170Y0175000D03*
X0390850Y0155310D03*
X0400700Y0155310D03*
D42*
X0299850Y0189000D03*
X0289850Y0199000D03*
X0253850Y0199000D03*
D51*
X0243850Y0199000D03*
X0289850Y0189000D03*
X0299850Y0199000D03*
X0309850Y0199000D03*
X0319850Y0199000D03*
X0329850Y0199000D03*
X0329850Y0189000D03*
X0319850Y0189000D03*
X0309850Y0189000D03*
D50*
X0212850Y0182910D03*
X0212850Y0171090D03*
X0403700Y0010000D02*
G75*
%LPD*%
D76*
X0415700Y0017000D03*
X0425700Y0017000D03*
X0435700Y0017000D03*
X0445700Y0017000D03*
X0455700Y0017000D03*
X0465700Y0017000D03*
X0563700Y0060940D03*
X0563700Y0069960D03*
X0571700Y0074450D03*
X0579700Y0069960D03*
X0571700Y0065430D03*
X0579700Y0060940D03*
X0579700Y0078980D03*
X0571700Y0083460D03*
X0579700Y0087990D03*
X0571700Y0092480D03*
X0579700Y0097010D03*
X0571700Y0101500D03*
X0563700Y0097010D03*
X0563700Y0087990D03*
X0563700Y0078980D03*
D70*
X0571700Y0030790D03*
X0571700Y0129210D03*
D39*
X0568020Y0155310D03*
X0568020Y0165160D03*
X0587700Y0175000D03*
X0568020Y0184840D03*
X0568020Y0194690D03*
D19*
X0587700Y0194690D03*
X0597550Y0194690D03*
X0568020Y0175000D03*
X0587700Y0155310D03*
X0597550Y0155310D03*
D42*
X0496700Y0189000D03*
X0486700Y0199000D03*
X0450700Y0199000D03*
D51*
X0440700Y0199000D03*
X0486700Y0189000D03*
X0496700Y0199000D03*
X0506700Y0199000D03*
X0516700Y0199000D03*
X0526700Y0199000D03*
X0526700Y0189000D03*
X0516700Y0189000D03*
X0506700Y0189000D03*
D50*
X0409700Y0182910D03*
X0409700Y0171090D03*
X0600550Y0010000D02*
G75*
%LPD*%
D76*
X0612550Y0017000D03*
X0622550Y0017000D03*
X0632550Y0017000D03*
X0642550Y0017000D03*
X0652550Y0017000D03*
X0662550Y0017000D03*
X0760550Y0060940D03*
X0760550Y0069960D03*
X0768550Y0074450D03*
X0776550Y0069960D03*
X0768550Y0065430D03*
X0776550Y0060940D03*
X0776550Y0078980D03*
X0768550Y0083460D03*
X0776550Y0087990D03*
X0768550Y0092480D03*
X0776550Y0097010D03*
X0768550Y0101500D03*
X0760550Y0097010D03*
X0760550Y0087990D03*
X0760550Y0078980D03*
D70*
X0768550Y0030790D03*
X0768550Y0129210D03*
D39*
X0764870Y0155310D03*
X0764870Y0165160D03*
X0784550Y0175000D03*
X0764870Y0184840D03*
X0764870Y0194690D03*
D19*
X0784550Y0194690D03*
X0794400Y0194690D03*
X0764870Y0175000D03*
X0784550Y0155310D03*
X0794400Y0155310D03*
D42*
X0693550Y0189000D03*
X0683550Y0199000D03*
X0647550Y0199000D03*
D51*
X0637550Y0199000D03*
X0683550Y0189000D03*
X0693550Y0199000D03*
X0703550Y0199000D03*
X0713550Y0199000D03*
X0723550Y0199000D03*
X0723550Y0189000D03*
X0713550Y0189000D03*
X0703550Y0189000D03*
D50*
X0606550Y0182910D03*
X0606550Y0171090D03*
X0797400Y0010000D02*
G75*
%LPD*%
D76*
X0809400Y0017000D03*
X0819400Y0017000D03*
X0829400Y0017000D03*
X0839400Y0017000D03*
X0849400Y0017000D03*
X0859400Y0017000D03*
X0957400Y0060940D03*
X0957400Y0069960D03*
X0965400Y0074450D03*
X0973400Y0069960D03*
X0965400Y0065430D03*
X0973400Y0060940D03*
X0973400Y0078980D03*
X0965400Y0083460D03*
X0973400Y0087990D03*
X0965400Y0092480D03*
X0973400Y0097010D03*
X0965400Y0101500D03*
X0957400Y0097010D03*
X0957400Y0087990D03*
X0957400Y0078980D03*
D70*
X0965400Y0030790D03*
X0965400Y0129210D03*
D39*
X0961720Y0155310D03*
X0961720Y0165160D03*
X0981400Y0175000D03*
X0961720Y0184840D03*
X0961720Y0194690D03*
D19*
X0981400Y0194690D03*
X0991250Y0194690D03*
X0961720Y0175000D03*
X0981400Y0155310D03*
X0991250Y0155310D03*
D42*
X0890400Y0189000D03*
X0880400Y0199000D03*
X0844400Y0199000D03*
D51*
X0834400Y0199000D03*
X0880400Y0189000D03*
X0890400Y0199000D03*
X0900400Y0199000D03*
X0910400Y0199000D03*
X0920400Y0199000D03*
X0920400Y0189000D03*
X0910400Y0189000D03*
X0900400Y0189000D03*
D50*
X0803400Y0182910D03*
X0803400Y0171090D03*
X0994250Y0010000D02*
G75*
%LPD*%
D76*
X1006250Y0017000D03*
X1016250Y0017000D03*
X1026250Y0017000D03*
X1036250Y0017000D03*
X1046250Y0017000D03*
X1056250Y0017000D03*
X1154250Y0060940D03*
X1154250Y0069960D03*
X1162250Y0074450D03*
X1170250Y0069960D03*
X1162250Y0065430D03*
X1170250Y0060940D03*
X1170250Y0078980D03*
X1162250Y0083460D03*
X1170250Y0087990D03*
X1162250Y0092480D03*
X1170250Y0097010D03*
X1162250Y0101500D03*
X1154250Y0097010D03*
X1154250Y0087990D03*
X1154250Y0078980D03*
D70*
X1162250Y0030790D03*
X1162250Y0129210D03*
D39*
X1158570Y0155310D03*
X1158570Y0165160D03*
X1178250Y0175000D03*
X1158570Y0184840D03*
X1158570Y0194690D03*
D19*
X1178250Y0194690D03*
X1188100Y0194690D03*
X1158570Y0175000D03*
X1178250Y0155310D03*
X1188100Y0155310D03*
D42*
X1087250Y0189000D03*
X1077250Y0199000D03*
X1041250Y0199000D03*
D51*
X1031250Y0199000D03*
X1077250Y0189000D03*
X1087250Y0199000D03*
X1097250Y0199000D03*
X1107250Y0199000D03*
X1117250Y0199000D03*
X1117250Y0189000D03*
X1107250Y0189000D03*
X1097250Y0189000D03*
D50*
X1000250Y0182910D03*
X1000250Y0171090D03*
D88*
X0069054Y-009685D03*
X0069054Y0226535D03*
X1132046Y-009685D03*
M02*
