G75*
G70*
%OFA0B0*%
%FSLAX25Y25*%
%IPPOS*%
%LPD*%
%AMOC8*
5,1,8,0,0,1.08239X$1,22.5*
%
%ADD73C,0.00600*%
X0010000Y0010000D02*
G75*
%LPD*%
D73*
X0020300Y0043300D02*
X0020300Y0045440D01*
X0020300Y0044370D02*
X0026710Y0044370D01*
X0026710Y0043300D01*
X0021370Y0047600D02*
X0022440Y0048660D01*
X0022440Y0051870D01*
X0023510Y0051870D02*
X0020300Y0051870D01*
X0020300Y0048660D01*
X0021370Y0047600D01*
X0024570Y0048660D02*
X0024570Y0050800D01*
X0023510Y0051870D01*
X0024570Y0054040D02*
X0021370Y0054040D01*
X0020300Y0055110D01*
X0020300Y0058310D01*
X0019240Y0058310D02*
X0018170Y0057250D01*
X0018170Y0056180D01*
X0019240Y0058310D02*
X0024570Y0058310D01*
X0023510Y0060490D02*
X0021370Y0060490D01*
X0020300Y0061560D01*
X0020300Y0063690D01*
X0022440Y0064760D02*
X0022440Y0060490D01*
X0023510Y0060490D02*
X0024570Y0061560D01*
X0024570Y0063690D01*
X0023510Y0064760D01*
X0022440Y0064760D01*
X0022440Y0066930D02*
X0024570Y0069070D01*
X0024570Y0070140D01*
X0023510Y0072300D02*
X0021370Y0072300D01*
X0020300Y0073370D01*
X0020300Y0075510D01*
X0021370Y0076580D01*
X0023510Y0076580D01*
X0024570Y0075510D01*
X0024570Y0073370D01*
X0023510Y0072300D01*
X0024570Y0066930D02*
X0020300Y0066930D01*
X0020300Y0078750D02*
X0024570Y0078750D01*
X0024570Y0081950D01*
X0023510Y0083020D01*
X0020300Y0083020D01*
X0021370Y0085200D02*
X0020300Y0086260D01*
X0020300Y0088400D01*
X0022440Y0089470D02*
X0022440Y0085200D01*
X0021370Y0085200D02*
X0023510Y0085200D01*
X0024570Y0086260D01*
X0024570Y0088400D01*
X0023510Y0089470D01*
X0022440Y0089470D01*
X0021370Y0091640D02*
X0020300Y0091640D01*
X0020300Y0092710D01*
X0021370Y0092710D01*
X0021370Y0091640D01*
X0021370Y0094860D02*
X0020300Y0095930D01*
X0020300Y0098070D01*
X0021370Y0099130D01*
X0023510Y0099130D01*
X0024570Y0098070D01*
X0024570Y0095930D01*
X0023510Y0094860D01*
X0021370Y0094860D01*
X0020300Y0101310D02*
X0024570Y0101310D01*
X0022440Y0101310D02*
X0024570Y0103440D01*
X0024570Y0104510D01*
X0023510Y0106680D02*
X0021370Y0106680D01*
X0020300Y0107750D01*
X0020300Y0110950D01*
X0019240Y0110950D02*
X0024570Y0110950D01*
X0024570Y0107750D01*
X0023510Y0106680D01*
X0019240Y0110950D02*
X0018170Y0109880D01*
X0018170Y0108820D01*
X0070300Y0110300D02*
X0070300Y0114570D01*
X0070300Y0116750D02*
X0070300Y0121020D01*
X0070300Y0118880D02*
X0076710Y0118880D01*
X0074570Y0116750D01*
X0080300Y0118080D02*
X0082440Y0114880D01*
X0084570Y0118080D01*
X0083510Y0120250D02*
X0081370Y0120250D01*
X0080300Y0121320D01*
X0080300Y0123450D01*
X0081370Y0124520D01*
X0083510Y0124520D01*
X0084570Y0123450D01*
X0084570Y0121320D01*
X0083510Y0120250D01*
X0080300Y0114880D02*
X0086710Y0114880D01*
X0084570Y0112710D02*
X0084570Y0111640D01*
X0082440Y0109510D01*
X0084570Y0109510D02*
X0080300Y0109510D01*
X0080300Y0107330D02*
X0080300Y0104130D01*
X0081370Y0103060D01*
X0082440Y0104130D01*
X0082440Y0107330D01*
X0083510Y0107330D02*
X0080300Y0107330D01*
X0083510Y0107330D02*
X0084570Y0106270D01*
X0084570Y0104130D01*
X0076710Y0110300D02*
X0070300Y0110300D01*
X0071370Y0123190D02*
X0073510Y0123190D01*
X0074570Y0124260D01*
X0074570Y0127460D01*
X0076710Y0127460D02*
X0070300Y0127460D01*
X0070300Y0124260D01*
X0071370Y0123190D01*
X0071370Y0129640D02*
X0073510Y0129640D01*
X0074570Y0130700D01*
X0074570Y0132840D01*
X0073510Y0133910D01*
X0072440Y0133910D01*
X0072440Y0129640D01*
X0071370Y0129640D02*
X0070300Y0130700D01*
X0070300Y0132840D01*
X0070300Y0136080D02*
X0074570Y0136080D01*
X0074570Y0137150D01*
X0073510Y0138220D01*
X0074570Y0139280D01*
X0073510Y0140350D01*
X0070300Y0140350D01*
X0070300Y0138220D02*
X0073510Y0138220D01*
X0073510Y0142530D02*
X0071370Y0142530D01*
X0070300Y0143600D01*
X0070300Y0145730D01*
X0071370Y0146800D01*
X0073510Y0146800D01*
X0074570Y0145730D01*
X0074570Y0143600D01*
X0073510Y0142530D01*
X0071370Y0148970D02*
X0071370Y0150040D01*
X0070300Y0150040D01*
X0070300Y0148970D01*
X0071370Y0148970D01*
X0071370Y0152200D02*
X0070300Y0153260D01*
X0070300Y0155400D01*
X0071370Y0156470D01*
X0073510Y0156470D01*
X0074570Y0155400D01*
X0074570Y0153260D01*
X0073510Y0152200D01*
X0071370Y0152200D01*
X0070300Y0158640D02*
X0074570Y0158640D01*
X0072440Y0158640D02*
X0074570Y0160780D01*
X0074570Y0161840D01*
X0073510Y0164010D02*
X0071370Y0164010D01*
X0070300Y0165080D01*
X0070300Y0168280D01*
X0069240Y0168280D02*
X0074570Y0168280D01*
X0074570Y0165080D01*
X0073510Y0164010D01*
X0068170Y0166150D02*
X0068170Y0167220D01*
X0069240Y0168280D01*
X0080300Y0168570D02*
X0080300Y0166440D01*
X0081370Y0165370D01*
X0083510Y0165370D01*
X0084570Y0166440D01*
X0084570Y0168570D01*
X0083510Y0169640D01*
X0081370Y0169640D01*
X0080300Y0168570D01*
X0080300Y0171810D02*
X0080300Y0172880D01*
X0081370Y0172880D01*
X0081370Y0171810D01*
X0080300Y0171810D01*
X0081370Y0175040D02*
X0080300Y0176110D01*
X0080300Y0178240D01*
X0081370Y0179310D01*
X0083510Y0179310D01*
X0084570Y0178240D01*
X0084570Y0176110D01*
X0083510Y0175040D01*
X0081370Y0175040D01*
X0080300Y0181480D02*
X0084570Y0181480D01*
X0082440Y0181480D02*
X0084570Y0183620D01*
X0084570Y0184690D01*
X0083510Y0186850D02*
X0081370Y0186850D01*
X0080300Y0187920D01*
X0080300Y0191120D01*
X0079240Y0191120D02*
X0078170Y0190060D01*
X0078170Y0188990D01*
X0079240Y0191120D02*
X0084570Y0191120D01*
X0084570Y0187920D01*
X0083510Y0186850D01*
X0083510Y0163190D02*
X0080300Y0163190D01*
X0080300Y0161060D02*
X0083510Y0161060D01*
X0084570Y0162130D01*
X0083510Y0163190D01*
X0083510Y0161060D02*
X0084570Y0159990D01*
X0084570Y0158920D01*
X0080300Y0158920D01*
X0082440Y0156750D02*
X0082440Y0152480D01*
X0083510Y0152480D02*
X0084570Y0153550D01*
X0084570Y0155680D01*
X0083510Y0156750D01*
X0082440Y0156750D01*
X0080300Y0155680D02*
X0080300Y0153550D01*
X0081370Y0152480D01*
X0083510Y0152480D01*
X0084570Y0150300D02*
X0084570Y0147100D01*
X0083510Y0146030D01*
X0081370Y0146030D01*
X0080300Y0147100D01*
X0080300Y0150300D01*
X0086710Y0150300D01*
X0080300Y0143860D02*
X0080300Y0139590D01*
X0080300Y0141720D02*
X0086710Y0141720D01*
X0084570Y0139590D01*
X0080300Y0137410D02*
X0080300Y0133140D01*
X0086710Y0133140D01*
X0085640Y0130970D02*
X0083510Y0130970D01*
X0082440Y0129900D01*
X0084570Y0129900D01*
X0084570Y0127760D01*
X0082440Y0127760D01*
X0082440Y0129900D01*
X0081370Y0130970D02*
X0080300Y0129900D01*
X0080300Y0127760D01*
X0081370Y0126700D01*
X0085640Y0126700D01*
X0086710Y0127760D01*
X0086710Y0129900D01*
X0085640Y0130970D01*
X0206850Y0010000D02*
G75*
%LPD*%
D73*
X0217150Y0043300D02*
X0217150Y0045440D01*
X0217150Y0044370D02*
X0223560Y0044370D01*
X0223560Y0043300D01*
X0218220Y0047600D02*
X0219290Y0048660D01*
X0219290Y0051870D01*
X0220360Y0051870D02*
X0217150Y0051870D01*
X0217150Y0048660D01*
X0218220Y0047600D01*
X0221420Y0048660D02*
X0221420Y0050800D01*
X0220360Y0051870D01*
X0221420Y0054040D02*
X0218220Y0054040D01*
X0217150Y0055110D01*
X0217150Y0058310D01*
X0216090Y0058310D02*
X0215020Y0057250D01*
X0215020Y0056180D01*
X0216090Y0058310D02*
X0221420Y0058310D01*
X0220360Y0060490D02*
X0218220Y0060490D01*
X0217150Y0061560D01*
X0217150Y0063690D01*
X0219290Y0064760D02*
X0219290Y0060490D01*
X0220360Y0060490D02*
X0221420Y0061560D01*
X0221420Y0063690D01*
X0220360Y0064760D01*
X0219290Y0064760D01*
X0219290Y0066930D02*
X0221420Y0069070D01*
X0221420Y0070140D01*
X0220360Y0072300D02*
X0218220Y0072300D01*
X0217150Y0073370D01*
X0217150Y0075510D01*
X0218220Y0076580D01*
X0220360Y0076580D01*
X0221420Y0075510D01*
X0221420Y0073370D01*
X0220360Y0072300D01*
X0221420Y0066930D02*
X0217150Y0066930D01*
X0217150Y0078750D02*
X0221420Y0078750D01*
X0221420Y0081950D01*
X0220360Y0083020D01*
X0217150Y0083020D01*
X0218220Y0085200D02*
X0217150Y0086260D01*
X0217150Y0088400D01*
X0219290Y0089470D02*
X0219290Y0085200D01*
X0218220Y0085200D02*
X0220360Y0085200D01*
X0221420Y0086260D01*
X0221420Y0088400D01*
X0220360Y0089470D01*
X0219290Y0089470D01*
X0218220Y0091640D02*
X0217150Y0091640D01*
X0217150Y0092710D01*
X0218220Y0092710D01*
X0218220Y0091640D01*
X0218220Y0094860D02*
X0217150Y0095930D01*
X0217150Y0098070D01*
X0218220Y0099130D01*
X0220360Y0099130D01*
X0221420Y0098070D01*
X0221420Y0095930D01*
X0220360Y0094860D01*
X0218220Y0094860D01*
X0217150Y0101310D02*
X0221420Y0101310D01*
X0219290Y0101310D02*
X0221420Y0103440D01*
X0221420Y0104510D01*
X0220360Y0106680D02*
X0218220Y0106680D01*
X0217150Y0107750D01*
X0217150Y0110950D01*
X0216090Y0110950D02*
X0221420Y0110950D01*
X0221420Y0107750D01*
X0220360Y0106680D01*
X0216090Y0110950D02*
X0215020Y0109880D01*
X0215020Y0108820D01*
X0267150Y0110300D02*
X0267150Y0114570D01*
X0267150Y0116750D02*
X0267150Y0121020D01*
X0267150Y0118880D02*
X0273560Y0118880D01*
X0271420Y0116750D01*
X0277150Y0118080D02*
X0279290Y0114880D01*
X0281420Y0118080D01*
X0280360Y0120250D02*
X0278220Y0120250D01*
X0277150Y0121320D01*
X0277150Y0123450D01*
X0278220Y0124520D01*
X0280360Y0124520D01*
X0281420Y0123450D01*
X0281420Y0121320D01*
X0280360Y0120250D01*
X0277150Y0114880D02*
X0283560Y0114880D01*
X0281420Y0112710D02*
X0281420Y0111640D01*
X0279290Y0109510D01*
X0281420Y0109510D02*
X0277150Y0109510D01*
X0277150Y0107330D02*
X0277150Y0104130D01*
X0278220Y0103060D01*
X0279290Y0104130D01*
X0279290Y0107330D01*
X0280360Y0107330D02*
X0277150Y0107330D01*
X0280360Y0107330D02*
X0281420Y0106270D01*
X0281420Y0104130D01*
X0273560Y0110300D02*
X0267150Y0110300D01*
X0268220Y0123190D02*
X0270360Y0123190D01*
X0271420Y0124260D01*
X0271420Y0127460D01*
X0273560Y0127460D02*
X0267150Y0127460D01*
X0267150Y0124260D01*
X0268220Y0123190D01*
X0268220Y0129640D02*
X0270360Y0129640D01*
X0271420Y0130700D01*
X0271420Y0132840D01*
X0270360Y0133910D01*
X0269290Y0133910D01*
X0269290Y0129640D01*
X0268220Y0129640D02*
X0267150Y0130700D01*
X0267150Y0132840D01*
X0267150Y0136080D02*
X0271420Y0136080D01*
X0271420Y0137150D01*
X0270360Y0138220D01*
X0271420Y0139280D01*
X0270360Y0140350D01*
X0267150Y0140350D01*
X0267150Y0138220D02*
X0270360Y0138220D01*
X0270360Y0142530D02*
X0268220Y0142530D01*
X0267150Y0143600D01*
X0267150Y0145730D01*
X0268220Y0146800D01*
X0270360Y0146800D01*
X0271420Y0145730D01*
X0271420Y0143600D01*
X0270360Y0142530D01*
X0268220Y0148970D02*
X0268220Y0150040D01*
X0267150Y0150040D01*
X0267150Y0148970D01*
X0268220Y0148970D01*
X0268220Y0152200D02*
X0267150Y0153260D01*
X0267150Y0155400D01*
X0268220Y0156470D01*
X0270360Y0156470D01*
X0271420Y0155400D01*
X0271420Y0153260D01*
X0270360Y0152200D01*
X0268220Y0152200D01*
X0267150Y0158640D02*
X0271420Y0158640D01*
X0269290Y0158640D02*
X0271420Y0160780D01*
X0271420Y0161840D01*
X0270360Y0164010D02*
X0268220Y0164010D01*
X0267150Y0165080D01*
X0267150Y0168280D01*
X0266090Y0168280D02*
X0271420Y0168280D01*
X0271420Y0165080D01*
X0270360Y0164010D01*
X0265020Y0166150D02*
X0265020Y0167220D01*
X0266090Y0168280D01*
X0277150Y0168570D02*
X0277150Y0166440D01*
X0278220Y0165370D01*
X0280360Y0165370D01*
X0281420Y0166440D01*
X0281420Y0168570D01*
X0280360Y0169640D01*
X0278220Y0169640D01*
X0277150Y0168570D01*
X0277150Y0171810D02*
X0277150Y0172880D01*
X0278220Y0172880D01*
X0278220Y0171810D01*
X0277150Y0171810D01*
X0278220Y0175040D02*
X0277150Y0176110D01*
X0277150Y0178240D01*
X0278220Y0179310D01*
X0280360Y0179310D01*
X0281420Y0178240D01*
X0281420Y0176110D01*
X0280360Y0175040D01*
X0278220Y0175040D01*
X0277150Y0181480D02*
X0281420Y0181480D01*
X0279290Y0181480D02*
X0281420Y0183620D01*
X0281420Y0184690D01*
X0280360Y0186850D02*
X0278220Y0186850D01*
X0277150Y0187920D01*
X0277150Y0191120D01*
X0276090Y0191120D02*
X0275020Y0190060D01*
X0275020Y0188990D01*
X0276090Y0191120D02*
X0281420Y0191120D01*
X0281420Y0187920D01*
X0280360Y0186850D01*
X0280360Y0163190D02*
X0277150Y0163190D01*
X0277150Y0161060D02*
X0280360Y0161060D01*
X0281420Y0162130D01*
X0280360Y0163190D01*
X0280360Y0161060D02*
X0281420Y0159990D01*
X0281420Y0158920D01*
X0277150Y0158920D01*
X0279290Y0156750D02*
X0279290Y0152480D01*
X0280360Y0152480D02*
X0281420Y0153550D01*
X0281420Y0155680D01*
X0280360Y0156750D01*
X0279290Y0156750D01*
X0277150Y0155680D02*
X0277150Y0153550D01*
X0278220Y0152480D01*
X0280360Y0152480D01*
X0281420Y0150300D02*
X0281420Y0147100D01*
X0280360Y0146030D01*
X0278220Y0146030D01*
X0277150Y0147100D01*
X0277150Y0150300D01*
X0283560Y0150300D01*
X0277150Y0143860D02*
X0277150Y0139590D01*
X0277150Y0141720D02*
X0283560Y0141720D01*
X0281420Y0139590D01*
X0277150Y0137410D02*
X0277150Y0133140D01*
X0283560Y0133140D01*
X0282490Y0130970D02*
X0280360Y0130970D01*
X0279290Y0129900D01*
X0281420Y0129900D01*
X0281420Y0127760D01*
X0279290Y0127760D01*
X0279290Y0129900D01*
X0278220Y0130970D02*
X0277150Y0129900D01*
X0277150Y0127760D01*
X0278220Y0126700D01*
X0282490Y0126700D01*
X0283560Y0127760D01*
X0283560Y0129900D01*
X0282490Y0130970D01*
X0403700Y0010000D02*
G75*
%LPD*%
D73*
X0414000Y0043300D02*
X0414000Y0045440D01*
X0414000Y0044370D02*
X0420410Y0044370D01*
X0420410Y0043300D01*
X0415070Y0047600D02*
X0416140Y0048660D01*
X0416140Y0051870D01*
X0417210Y0051870D02*
X0414000Y0051870D01*
X0414000Y0048660D01*
X0415070Y0047600D01*
X0418270Y0048660D02*
X0418270Y0050800D01*
X0417210Y0051870D01*
X0418270Y0054040D02*
X0415070Y0054040D01*
X0414000Y0055110D01*
X0414000Y0058310D01*
X0412940Y0058310D02*
X0411870Y0057250D01*
X0411870Y0056180D01*
X0412940Y0058310D02*
X0418270Y0058310D01*
X0417210Y0060490D02*
X0415070Y0060490D01*
X0414000Y0061560D01*
X0414000Y0063690D01*
X0416140Y0064760D02*
X0416140Y0060490D01*
X0417210Y0060490D02*
X0418270Y0061560D01*
X0418270Y0063690D01*
X0417210Y0064760D01*
X0416140Y0064760D01*
X0416140Y0066930D02*
X0418270Y0069070D01*
X0418270Y0070140D01*
X0417210Y0072300D02*
X0415070Y0072300D01*
X0414000Y0073370D01*
X0414000Y0075510D01*
X0415070Y0076580D01*
X0417210Y0076580D01*
X0418270Y0075510D01*
X0418270Y0073370D01*
X0417210Y0072300D01*
X0418270Y0066930D02*
X0414000Y0066930D01*
X0414000Y0078750D02*
X0418270Y0078750D01*
X0418270Y0081950D01*
X0417210Y0083020D01*
X0414000Y0083020D01*
X0415070Y0085200D02*
X0414000Y0086260D01*
X0414000Y0088400D01*
X0416140Y0089470D02*
X0416140Y0085200D01*
X0415070Y0085200D02*
X0417210Y0085200D01*
X0418270Y0086260D01*
X0418270Y0088400D01*
X0417210Y0089470D01*
X0416140Y0089470D01*
X0415070Y0091640D02*
X0414000Y0091640D01*
X0414000Y0092710D01*
X0415070Y0092710D01*
X0415070Y0091640D01*
X0415070Y0094860D02*
X0414000Y0095930D01*
X0414000Y0098070D01*
X0415070Y0099130D01*
X0417210Y0099130D01*
X0418270Y0098070D01*
X0418270Y0095930D01*
X0417210Y0094860D01*
X0415070Y0094860D01*
X0414000Y0101310D02*
X0418270Y0101310D01*
X0416140Y0101310D02*
X0418270Y0103440D01*
X0418270Y0104510D01*
X0417210Y0106680D02*
X0415070Y0106680D01*
X0414000Y0107750D01*
X0414000Y0110950D01*
X0412940Y0110950D02*
X0418270Y0110950D01*
X0418270Y0107750D01*
X0417210Y0106680D01*
X0412940Y0110950D02*
X0411870Y0109880D01*
X0411870Y0108820D01*
X0464000Y0110300D02*
X0464000Y0114570D01*
X0464000Y0116750D02*
X0464000Y0121020D01*
X0464000Y0118880D02*
X0470410Y0118880D01*
X0468270Y0116750D01*
X0474000Y0118080D02*
X0476140Y0114880D01*
X0478270Y0118080D01*
X0477210Y0120250D02*
X0475070Y0120250D01*
X0474000Y0121320D01*
X0474000Y0123450D01*
X0475070Y0124520D01*
X0477210Y0124520D01*
X0478270Y0123450D01*
X0478270Y0121320D01*
X0477210Y0120250D01*
X0474000Y0114880D02*
X0480410Y0114880D01*
X0478270Y0112710D02*
X0478270Y0111640D01*
X0476140Y0109510D01*
X0478270Y0109510D02*
X0474000Y0109510D01*
X0474000Y0107330D02*
X0474000Y0104130D01*
X0475070Y0103060D01*
X0476140Y0104130D01*
X0476140Y0107330D01*
X0477210Y0107330D02*
X0474000Y0107330D01*
X0477210Y0107330D02*
X0478270Y0106270D01*
X0478270Y0104130D01*
X0470410Y0110300D02*
X0464000Y0110300D01*
X0465070Y0123190D02*
X0467210Y0123190D01*
X0468270Y0124260D01*
X0468270Y0127460D01*
X0470410Y0127460D02*
X0464000Y0127460D01*
X0464000Y0124260D01*
X0465070Y0123190D01*
X0465070Y0129640D02*
X0467210Y0129640D01*
X0468270Y0130700D01*
X0468270Y0132840D01*
X0467210Y0133910D01*
X0466140Y0133910D01*
X0466140Y0129640D01*
X0465070Y0129640D02*
X0464000Y0130700D01*
X0464000Y0132840D01*
X0464000Y0136080D02*
X0468270Y0136080D01*
X0468270Y0137150D01*
X0467210Y0138220D01*
X0468270Y0139280D01*
X0467210Y0140350D01*
X0464000Y0140350D01*
X0464000Y0138220D02*
X0467210Y0138220D01*
X0467210Y0142530D02*
X0465070Y0142530D01*
X0464000Y0143600D01*
X0464000Y0145730D01*
X0465070Y0146800D01*
X0467210Y0146800D01*
X0468270Y0145730D01*
X0468270Y0143600D01*
X0467210Y0142530D01*
X0465070Y0148970D02*
X0465070Y0150040D01*
X0464000Y0150040D01*
X0464000Y0148970D01*
X0465070Y0148970D01*
X0465070Y0152200D02*
X0464000Y0153260D01*
X0464000Y0155400D01*
X0465070Y0156470D01*
X0467210Y0156470D01*
X0468270Y0155400D01*
X0468270Y0153260D01*
X0467210Y0152200D01*
X0465070Y0152200D01*
X0464000Y0158640D02*
X0468270Y0158640D01*
X0466140Y0158640D02*
X0468270Y0160780D01*
X0468270Y0161840D01*
X0467210Y0164010D02*
X0465070Y0164010D01*
X0464000Y0165080D01*
X0464000Y0168280D01*
X0462940Y0168280D02*
X0468270Y0168280D01*
X0468270Y0165080D01*
X0467210Y0164010D01*
X0461870Y0166150D02*
X0461870Y0167220D01*
X0462940Y0168280D01*
X0474000Y0168570D02*
X0474000Y0166440D01*
X0475070Y0165370D01*
X0477210Y0165370D01*
X0478270Y0166440D01*
X0478270Y0168570D01*
X0477210Y0169640D01*
X0475070Y0169640D01*
X0474000Y0168570D01*
X0474000Y0171810D02*
X0474000Y0172880D01*
X0475070Y0172880D01*
X0475070Y0171810D01*
X0474000Y0171810D01*
X0475070Y0175040D02*
X0474000Y0176110D01*
X0474000Y0178240D01*
X0475070Y0179310D01*
X0477210Y0179310D01*
X0478270Y0178240D01*
X0478270Y0176110D01*
X0477210Y0175040D01*
X0475070Y0175040D01*
X0474000Y0181480D02*
X0478270Y0181480D01*
X0476140Y0181480D02*
X0478270Y0183620D01*
X0478270Y0184690D01*
X0477210Y0186850D02*
X0475070Y0186850D01*
X0474000Y0187920D01*
X0474000Y0191120D01*
X0472940Y0191120D02*
X0471870Y0190060D01*
X0471870Y0188990D01*
X0472940Y0191120D02*
X0478270Y0191120D01*
X0478270Y0187920D01*
X0477210Y0186850D01*
X0477210Y0163190D02*
X0474000Y0163190D01*
X0474000Y0161060D02*
X0477210Y0161060D01*
X0478270Y0162130D01*
X0477210Y0163190D01*
X0477210Y0161060D02*
X0478270Y0159990D01*
X0478270Y0158920D01*
X0474000Y0158920D01*
X0476140Y0156750D02*
X0476140Y0152480D01*
X0477210Y0152480D02*
X0478270Y0153550D01*
X0478270Y0155680D01*
X0477210Y0156750D01*
X0476140Y0156750D01*
X0474000Y0155680D02*
X0474000Y0153550D01*
X0475070Y0152480D01*
X0477210Y0152480D01*
X0478270Y0150300D02*
X0478270Y0147100D01*
X0477210Y0146030D01*
X0475070Y0146030D01*
X0474000Y0147100D01*
X0474000Y0150300D01*
X0480410Y0150300D01*
X0474000Y0143860D02*
X0474000Y0139590D01*
X0474000Y0141720D02*
X0480410Y0141720D01*
X0478270Y0139590D01*
X0474000Y0137410D02*
X0474000Y0133140D01*
X0480410Y0133140D01*
X0479340Y0130970D02*
X0477210Y0130970D01*
X0476140Y0129900D01*
X0478270Y0129900D01*
X0478270Y0127760D01*
X0476140Y0127760D01*
X0476140Y0129900D01*
X0475070Y0130970D02*
X0474000Y0129900D01*
X0474000Y0127760D01*
X0475070Y0126700D01*
X0479340Y0126700D01*
X0480410Y0127760D01*
X0480410Y0129900D01*
X0479340Y0130970D01*
X0600550Y0010000D02*
G75*
%LPD*%
D73*
X0610850Y0043300D02*
X0610850Y0045440D01*
X0610850Y0044370D02*
X0617260Y0044370D01*
X0617260Y0043300D01*
X0611920Y0047600D02*
X0612990Y0048660D01*
X0612990Y0051870D01*
X0614060Y0051870D02*
X0610850Y0051870D01*
X0610850Y0048660D01*
X0611920Y0047600D01*
X0615120Y0048660D02*
X0615120Y0050800D01*
X0614060Y0051870D01*
X0615120Y0054040D02*
X0611920Y0054040D01*
X0610850Y0055110D01*
X0610850Y0058310D01*
X0609790Y0058310D02*
X0608720Y0057250D01*
X0608720Y0056180D01*
X0609790Y0058310D02*
X0615120Y0058310D01*
X0614060Y0060490D02*
X0611920Y0060490D01*
X0610850Y0061560D01*
X0610850Y0063690D01*
X0612990Y0064760D02*
X0612990Y0060490D01*
X0614060Y0060490D02*
X0615120Y0061560D01*
X0615120Y0063690D01*
X0614060Y0064760D01*
X0612990Y0064760D01*
X0612990Y0066930D02*
X0615120Y0069070D01*
X0615120Y0070140D01*
X0614060Y0072300D02*
X0611920Y0072300D01*
X0610850Y0073370D01*
X0610850Y0075510D01*
X0611920Y0076580D01*
X0614060Y0076580D01*
X0615120Y0075510D01*
X0615120Y0073370D01*
X0614060Y0072300D01*
X0615120Y0066930D02*
X0610850Y0066930D01*
X0610850Y0078750D02*
X0615120Y0078750D01*
X0615120Y0081950D01*
X0614060Y0083020D01*
X0610850Y0083020D01*
X0611920Y0085200D02*
X0610850Y0086260D01*
X0610850Y0088400D01*
X0612990Y0089470D02*
X0612990Y0085200D01*
X0611920Y0085200D02*
X0614060Y0085200D01*
X0615120Y0086260D01*
X0615120Y0088400D01*
X0614060Y0089470D01*
X0612990Y0089470D01*
X0611920Y0091640D02*
X0610850Y0091640D01*
X0610850Y0092710D01*
X0611920Y0092710D01*
X0611920Y0091640D01*
X0611920Y0094860D02*
X0610850Y0095930D01*
X0610850Y0098070D01*
X0611920Y0099130D01*
X0614060Y0099130D01*
X0615120Y0098070D01*
X0615120Y0095930D01*
X0614060Y0094860D01*
X0611920Y0094860D01*
X0610850Y0101310D02*
X0615120Y0101310D01*
X0612990Y0101310D02*
X0615120Y0103440D01*
X0615120Y0104510D01*
X0614060Y0106680D02*
X0611920Y0106680D01*
X0610850Y0107750D01*
X0610850Y0110950D01*
X0609790Y0110950D02*
X0615120Y0110950D01*
X0615120Y0107750D01*
X0614060Y0106680D01*
X0609790Y0110950D02*
X0608720Y0109880D01*
X0608720Y0108820D01*
X0660850Y0110300D02*
X0660850Y0114570D01*
X0660850Y0116750D02*
X0660850Y0121020D01*
X0660850Y0118880D02*
X0667260Y0118880D01*
X0665120Y0116750D01*
X0670850Y0118080D02*
X0672990Y0114880D01*
X0675120Y0118080D01*
X0674060Y0120250D02*
X0671920Y0120250D01*
X0670850Y0121320D01*
X0670850Y0123450D01*
X0671920Y0124520D01*
X0674060Y0124520D01*
X0675120Y0123450D01*
X0675120Y0121320D01*
X0674060Y0120250D01*
X0670850Y0114880D02*
X0677260Y0114880D01*
X0675120Y0112710D02*
X0675120Y0111640D01*
X0672990Y0109510D01*
X0675120Y0109510D02*
X0670850Y0109510D01*
X0670850Y0107330D02*
X0670850Y0104130D01*
X0671920Y0103060D01*
X0672990Y0104130D01*
X0672990Y0107330D01*
X0674060Y0107330D02*
X0670850Y0107330D01*
X0674060Y0107330D02*
X0675120Y0106270D01*
X0675120Y0104130D01*
X0667260Y0110300D02*
X0660850Y0110300D01*
X0661920Y0123190D02*
X0664060Y0123190D01*
X0665120Y0124260D01*
X0665120Y0127460D01*
X0667260Y0127460D02*
X0660850Y0127460D01*
X0660850Y0124260D01*
X0661920Y0123190D01*
X0661920Y0129640D02*
X0664060Y0129640D01*
X0665120Y0130700D01*
X0665120Y0132840D01*
X0664060Y0133910D01*
X0662990Y0133910D01*
X0662990Y0129640D01*
X0661920Y0129640D02*
X0660850Y0130700D01*
X0660850Y0132840D01*
X0660850Y0136080D02*
X0665120Y0136080D01*
X0665120Y0137150D01*
X0664060Y0138220D01*
X0665120Y0139280D01*
X0664060Y0140350D01*
X0660850Y0140350D01*
X0660850Y0138220D02*
X0664060Y0138220D01*
X0664060Y0142530D02*
X0661920Y0142530D01*
X0660850Y0143600D01*
X0660850Y0145730D01*
X0661920Y0146800D01*
X0664060Y0146800D01*
X0665120Y0145730D01*
X0665120Y0143600D01*
X0664060Y0142530D01*
X0661920Y0148970D02*
X0661920Y0150040D01*
X0660850Y0150040D01*
X0660850Y0148970D01*
X0661920Y0148970D01*
X0661920Y0152200D02*
X0660850Y0153260D01*
X0660850Y0155400D01*
X0661920Y0156470D01*
X0664060Y0156470D01*
X0665120Y0155400D01*
X0665120Y0153260D01*
X0664060Y0152200D01*
X0661920Y0152200D01*
X0660850Y0158640D02*
X0665120Y0158640D01*
X0662990Y0158640D02*
X0665120Y0160780D01*
X0665120Y0161840D01*
X0664060Y0164010D02*
X0661920Y0164010D01*
X0660850Y0165080D01*
X0660850Y0168280D01*
X0659790Y0168280D02*
X0665120Y0168280D01*
X0665120Y0165080D01*
X0664060Y0164010D01*
X0658720Y0166150D02*
X0658720Y0167220D01*
X0659790Y0168280D01*
X0670850Y0168570D02*
X0670850Y0166440D01*
X0671920Y0165370D01*
X0674060Y0165370D01*
X0675120Y0166440D01*
X0675120Y0168570D01*
X0674060Y0169640D01*
X0671920Y0169640D01*
X0670850Y0168570D01*
X0670850Y0171810D02*
X0670850Y0172880D01*
X0671920Y0172880D01*
X0671920Y0171810D01*
X0670850Y0171810D01*
X0671920Y0175040D02*
X0670850Y0176110D01*
X0670850Y0178240D01*
X0671920Y0179310D01*
X0674060Y0179310D01*
X0675120Y0178240D01*
X0675120Y0176110D01*
X0674060Y0175040D01*
X0671920Y0175040D01*
X0670850Y0181480D02*
X0675120Y0181480D01*
X0672990Y0181480D02*
X0675120Y0183620D01*
X0675120Y0184690D01*
X0674060Y0186850D02*
X0671920Y0186850D01*
X0670850Y0187920D01*
X0670850Y0191120D01*
X0669790Y0191120D02*
X0668720Y0190060D01*
X0668720Y0188990D01*
X0669790Y0191120D02*
X0675120Y0191120D01*
X0675120Y0187920D01*
X0674060Y0186850D01*
X0674060Y0163190D02*
X0670850Y0163190D01*
X0670850Y0161060D02*
X0674060Y0161060D01*
X0675120Y0162130D01*
X0674060Y0163190D01*
X0674060Y0161060D02*
X0675120Y0159990D01*
X0675120Y0158920D01*
X0670850Y0158920D01*
X0672990Y0156750D02*
X0672990Y0152480D01*
X0674060Y0152480D02*
X0675120Y0153550D01*
X0675120Y0155680D01*
X0674060Y0156750D01*
X0672990Y0156750D01*
X0670850Y0155680D02*
X0670850Y0153550D01*
X0671920Y0152480D01*
X0674060Y0152480D01*
X0675120Y0150300D02*
X0675120Y0147100D01*
X0674060Y0146030D01*
X0671920Y0146030D01*
X0670850Y0147100D01*
X0670850Y0150300D01*
X0677260Y0150300D01*
X0670850Y0143860D02*
X0670850Y0139590D01*
X0670850Y0141720D02*
X0677260Y0141720D01*
X0675120Y0139590D01*
X0670850Y0137410D02*
X0670850Y0133140D01*
X0677260Y0133140D01*
X0676190Y0130970D02*
X0674060Y0130970D01*
X0672990Y0129900D01*
X0675120Y0129900D01*
X0675120Y0127760D01*
X0672990Y0127760D01*
X0672990Y0129900D01*
X0671920Y0130970D02*
X0670850Y0129900D01*
X0670850Y0127760D01*
X0671920Y0126700D01*
X0676190Y0126700D01*
X0677260Y0127760D01*
X0677260Y0129900D01*
X0676190Y0130970D01*
X0797400Y0010000D02*
G75*
%LPD*%
D73*
X0807700Y0043300D02*
X0807700Y0045440D01*
X0807700Y0044370D02*
X0814110Y0044370D01*
X0814110Y0043300D01*
X0808770Y0047600D02*
X0809840Y0048660D01*
X0809840Y0051870D01*
X0810910Y0051870D02*
X0807700Y0051870D01*
X0807700Y0048660D01*
X0808770Y0047600D01*
X0811970Y0048660D02*
X0811970Y0050800D01*
X0810910Y0051870D01*
X0811970Y0054040D02*
X0808770Y0054040D01*
X0807700Y0055110D01*
X0807700Y0058310D01*
X0806640Y0058310D02*
X0805570Y0057250D01*
X0805570Y0056180D01*
X0806640Y0058310D02*
X0811970Y0058310D01*
X0810910Y0060490D02*
X0808770Y0060490D01*
X0807700Y0061560D01*
X0807700Y0063690D01*
X0809840Y0064760D02*
X0809840Y0060490D01*
X0810910Y0060490D02*
X0811970Y0061560D01*
X0811970Y0063690D01*
X0810910Y0064760D01*
X0809840Y0064760D01*
X0809840Y0066930D02*
X0811970Y0069070D01*
X0811970Y0070140D01*
X0810910Y0072300D02*
X0808770Y0072300D01*
X0807700Y0073370D01*
X0807700Y0075510D01*
X0808770Y0076580D01*
X0810910Y0076580D01*
X0811970Y0075510D01*
X0811970Y0073370D01*
X0810910Y0072300D01*
X0811970Y0066930D02*
X0807700Y0066930D01*
X0807700Y0078750D02*
X0811970Y0078750D01*
X0811970Y0081950D01*
X0810910Y0083020D01*
X0807700Y0083020D01*
X0808770Y0085200D02*
X0807700Y0086260D01*
X0807700Y0088400D01*
X0809840Y0089470D02*
X0809840Y0085200D01*
X0808770Y0085200D02*
X0810910Y0085200D01*
X0811970Y0086260D01*
X0811970Y0088400D01*
X0810910Y0089470D01*
X0809840Y0089470D01*
X0808770Y0091640D02*
X0807700Y0091640D01*
X0807700Y0092710D01*
X0808770Y0092710D01*
X0808770Y0091640D01*
X0808770Y0094860D02*
X0807700Y0095930D01*
X0807700Y0098070D01*
X0808770Y0099130D01*
X0810910Y0099130D01*
X0811970Y0098070D01*
X0811970Y0095930D01*
X0810910Y0094860D01*
X0808770Y0094860D01*
X0807700Y0101310D02*
X0811970Y0101310D01*
X0809840Y0101310D02*
X0811970Y0103440D01*
X0811970Y0104510D01*
X0810910Y0106680D02*
X0808770Y0106680D01*
X0807700Y0107750D01*
X0807700Y0110950D01*
X0806640Y0110950D02*
X0811970Y0110950D01*
X0811970Y0107750D01*
X0810910Y0106680D01*
X0806640Y0110950D02*
X0805570Y0109880D01*
X0805570Y0108820D01*
X0857700Y0110300D02*
X0857700Y0114570D01*
X0857700Y0116750D02*
X0857700Y0121020D01*
X0857700Y0118880D02*
X0864110Y0118880D01*
X0861970Y0116750D01*
X0867700Y0118080D02*
X0869840Y0114880D01*
X0871970Y0118080D01*
X0870910Y0120250D02*
X0868770Y0120250D01*
X0867700Y0121320D01*
X0867700Y0123450D01*
X0868770Y0124520D01*
X0870910Y0124520D01*
X0871970Y0123450D01*
X0871970Y0121320D01*
X0870910Y0120250D01*
X0867700Y0114880D02*
X0874110Y0114880D01*
X0871970Y0112710D02*
X0871970Y0111640D01*
X0869840Y0109510D01*
X0871970Y0109510D02*
X0867700Y0109510D01*
X0867700Y0107330D02*
X0867700Y0104130D01*
X0868770Y0103060D01*
X0869840Y0104130D01*
X0869840Y0107330D01*
X0870910Y0107330D02*
X0867700Y0107330D01*
X0870910Y0107330D02*
X0871970Y0106270D01*
X0871970Y0104130D01*
X0864110Y0110300D02*
X0857700Y0110300D01*
X0858770Y0123190D02*
X0860910Y0123190D01*
X0861970Y0124260D01*
X0861970Y0127460D01*
X0864110Y0127460D02*
X0857700Y0127460D01*
X0857700Y0124260D01*
X0858770Y0123190D01*
X0858770Y0129640D02*
X0860910Y0129640D01*
X0861970Y0130700D01*
X0861970Y0132840D01*
X0860910Y0133910D01*
X0859840Y0133910D01*
X0859840Y0129640D01*
X0858770Y0129640D02*
X0857700Y0130700D01*
X0857700Y0132840D01*
X0857700Y0136080D02*
X0861970Y0136080D01*
X0861970Y0137150D01*
X0860910Y0138220D01*
X0861970Y0139280D01*
X0860910Y0140350D01*
X0857700Y0140350D01*
X0857700Y0138220D02*
X0860910Y0138220D01*
X0860910Y0142530D02*
X0858770Y0142530D01*
X0857700Y0143600D01*
X0857700Y0145730D01*
X0858770Y0146800D01*
X0860910Y0146800D01*
X0861970Y0145730D01*
X0861970Y0143600D01*
X0860910Y0142530D01*
X0858770Y0148970D02*
X0858770Y0150040D01*
X0857700Y0150040D01*
X0857700Y0148970D01*
X0858770Y0148970D01*
X0858770Y0152200D02*
X0857700Y0153260D01*
X0857700Y0155400D01*
X0858770Y0156470D01*
X0860910Y0156470D01*
X0861970Y0155400D01*
X0861970Y0153260D01*
X0860910Y0152200D01*
X0858770Y0152200D01*
X0857700Y0158640D02*
X0861970Y0158640D01*
X0859840Y0158640D02*
X0861970Y0160780D01*
X0861970Y0161840D01*
X0860910Y0164010D02*
X0858770Y0164010D01*
X0857700Y0165080D01*
X0857700Y0168280D01*
X0856640Y0168280D02*
X0861970Y0168280D01*
X0861970Y0165080D01*
X0860910Y0164010D01*
X0855570Y0166150D02*
X0855570Y0167220D01*
X0856640Y0168280D01*
X0867700Y0168570D02*
X0867700Y0166440D01*
X0868770Y0165370D01*
X0870910Y0165370D01*
X0871970Y0166440D01*
X0871970Y0168570D01*
X0870910Y0169640D01*
X0868770Y0169640D01*
X0867700Y0168570D01*
X0867700Y0171810D02*
X0867700Y0172880D01*
X0868770Y0172880D01*
X0868770Y0171810D01*
X0867700Y0171810D01*
X0868770Y0175040D02*
X0867700Y0176110D01*
X0867700Y0178240D01*
X0868770Y0179310D01*
X0870910Y0179310D01*
X0871970Y0178240D01*
X0871970Y0176110D01*
X0870910Y0175040D01*
X0868770Y0175040D01*
X0867700Y0181480D02*
X0871970Y0181480D01*
X0869840Y0181480D02*
X0871970Y0183620D01*
X0871970Y0184690D01*
X0870910Y0186850D02*
X0868770Y0186850D01*
X0867700Y0187920D01*
X0867700Y0191120D01*
X0866640Y0191120D02*
X0865570Y0190060D01*
X0865570Y0188990D01*
X0866640Y0191120D02*
X0871970Y0191120D01*
X0871970Y0187920D01*
X0870910Y0186850D01*
X0870910Y0163190D02*
X0867700Y0163190D01*
X0867700Y0161060D02*
X0870910Y0161060D01*
X0871970Y0162130D01*
X0870910Y0163190D01*
X0870910Y0161060D02*
X0871970Y0159990D01*
X0871970Y0158920D01*
X0867700Y0158920D01*
X0869840Y0156750D02*
X0869840Y0152480D01*
X0870910Y0152480D02*
X0871970Y0153550D01*
X0871970Y0155680D01*
X0870910Y0156750D01*
X0869840Y0156750D01*
X0867700Y0155680D02*
X0867700Y0153550D01*
X0868770Y0152480D01*
X0870910Y0152480D01*
X0871970Y0150300D02*
X0871970Y0147100D01*
X0870910Y0146030D01*
X0868770Y0146030D01*
X0867700Y0147100D01*
X0867700Y0150300D01*
X0874110Y0150300D01*
X0867700Y0143860D02*
X0867700Y0139590D01*
X0867700Y0141720D02*
X0874110Y0141720D01*
X0871970Y0139590D01*
X0867700Y0137410D02*
X0867700Y0133140D01*
X0874110Y0133140D01*
X0873040Y0130970D02*
X0870910Y0130970D01*
X0869840Y0129900D01*
X0871970Y0129900D01*
X0871970Y0127760D01*
X0869840Y0127760D01*
X0869840Y0129900D01*
X0868770Y0130970D02*
X0867700Y0129900D01*
X0867700Y0127760D01*
X0868770Y0126700D01*
X0873040Y0126700D01*
X0874110Y0127760D01*
X0874110Y0129900D01*
X0873040Y0130970D01*
X0994250Y0010000D02*
G75*
%LPD*%
D73*
X1004550Y0043300D02*
X1004550Y0045440D01*
X1004550Y0044370D02*
X1010960Y0044370D01*
X1010960Y0043300D01*
X1005620Y0047600D02*
X1006690Y0048660D01*
X1006690Y0051870D01*
X1007760Y0051870D02*
X1004550Y0051870D01*
X1004550Y0048660D01*
X1005620Y0047600D01*
X1008820Y0048660D02*
X1008820Y0050800D01*
X1007760Y0051870D01*
X1008820Y0054040D02*
X1005620Y0054040D01*
X1004550Y0055110D01*
X1004550Y0058310D01*
X1003490Y0058310D02*
X1002420Y0057250D01*
X1002420Y0056180D01*
X1003490Y0058310D02*
X1008820Y0058310D01*
X1007760Y0060490D02*
X1005620Y0060490D01*
X1004550Y0061560D01*
X1004550Y0063690D01*
X1006690Y0064760D02*
X1006690Y0060490D01*
X1007760Y0060490D02*
X1008820Y0061560D01*
X1008820Y0063690D01*
X1007760Y0064760D01*
X1006690Y0064760D01*
X1006690Y0066930D02*
X1008820Y0069070D01*
X1008820Y0070140D01*
X1007760Y0072300D02*
X1005620Y0072300D01*
X1004550Y0073370D01*
X1004550Y0075510D01*
X1005620Y0076580D01*
X1007760Y0076580D01*
X1008820Y0075510D01*
X1008820Y0073370D01*
X1007760Y0072300D01*
X1008820Y0066930D02*
X1004550Y0066930D01*
X1004550Y0078750D02*
X1008820Y0078750D01*
X1008820Y0081950D01*
X1007760Y0083020D01*
X1004550Y0083020D01*
X1005620Y0085200D02*
X1004550Y0086260D01*
X1004550Y0088400D01*
X1006690Y0089470D02*
X1006690Y0085200D01*
X1005620Y0085200D02*
X1007760Y0085200D01*
X1008820Y0086260D01*
X1008820Y0088400D01*
X1007760Y0089470D01*
X1006690Y0089470D01*
X1005620Y0091640D02*
X1004550Y0091640D01*
X1004550Y0092710D01*
X1005620Y0092710D01*
X1005620Y0091640D01*
X1005620Y0094860D02*
X1004550Y0095930D01*
X1004550Y0098070D01*
X1005620Y0099130D01*
X1007760Y0099130D01*
X1008820Y0098070D01*
X1008820Y0095930D01*
X1007760Y0094860D01*
X1005620Y0094860D01*
X1004550Y0101310D02*
X1008820Y0101310D01*
X1006690Y0101310D02*
X1008820Y0103440D01*
X1008820Y0104510D01*
X1007760Y0106680D02*
X1005620Y0106680D01*
X1004550Y0107750D01*
X1004550Y0110950D01*
X1003490Y0110950D02*
X1008820Y0110950D01*
X1008820Y0107750D01*
X1007760Y0106680D01*
X1003490Y0110950D02*
X1002420Y0109880D01*
X1002420Y0108820D01*
X1054550Y0110300D02*
X1054550Y0114570D01*
X1054550Y0116750D02*
X1054550Y0121020D01*
X1054550Y0118880D02*
X1060960Y0118880D01*
X1058820Y0116750D01*
X1064550Y0118080D02*
X1066690Y0114880D01*
X1068820Y0118080D01*
X1067760Y0120250D02*
X1065620Y0120250D01*
X1064550Y0121320D01*
X1064550Y0123450D01*
X1065620Y0124520D01*
X1067760Y0124520D01*
X1068820Y0123450D01*
X1068820Y0121320D01*
X1067760Y0120250D01*
X1064550Y0114880D02*
X1070960Y0114880D01*
X1068820Y0112710D02*
X1068820Y0111640D01*
X1066690Y0109510D01*
X1068820Y0109510D02*
X1064550Y0109510D01*
X1064550Y0107330D02*
X1064550Y0104130D01*
X1065620Y0103060D01*
X1066690Y0104130D01*
X1066690Y0107330D01*
X1067760Y0107330D02*
X1064550Y0107330D01*
X1067760Y0107330D02*
X1068820Y0106270D01*
X1068820Y0104130D01*
X1060960Y0110300D02*
X1054550Y0110300D01*
X1055620Y0123190D02*
X1057760Y0123190D01*
X1058820Y0124260D01*
X1058820Y0127460D01*
X1060960Y0127460D02*
X1054550Y0127460D01*
X1054550Y0124260D01*
X1055620Y0123190D01*
X1055620Y0129640D02*
X1057760Y0129640D01*
X1058820Y0130700D01*
X1058820Y0132840D01*
X1057760Y0133910D01*
X1056690Y0133910D01*
X1056690Y0129640D01*
X1055620Y0129640D02*
X1054550Y0130700D01*
X1054550Y0132840D01*
X1054550Y0136080D02*
X1058820Y0136080D01*
X1058820Y0137150D01*
X1057760Y0138220D01*
X1058820Y0139280D01*
X1057760Y0140350D01*
X1054550Y0140350D01*
X1054550Y0138220D02*
X1057760Y0138220D01*
X1057760Y0142530D02*
X1055620Y0142530D01*
X1054550Y0143600D01*
X1054550Y0145730D01*
X1055620Y0146800D01*
X1057760Y0146800D01*
X1058820Y0145730D01*
X1058820Y0143600D01*
X1057760Y0142530D01*
X1055620Y0148970D02*
X1055620Y0150040D01*
X1054550Y0150040D01*
X1054550Y0148970D01*
X1055620Y0148970D01*
X1055620Y0152200D02*
X1054550Y0153260D01*
X1054550Y0155400D01*
X1055620Y0156470D01*
X1057760Y0156470D01*
X1058820Y0155400D01*
X1058820Y0153260D01*
X1057760Y0152200D01*
X1055620Y0152200D01*
X1054550Y0158640D02*
X1058820Y0158640D01*
X1056690Y0158640D02*
X1058820Y0160780D01*
X1058820Y0161840D01*
X1057760Y0164010D02*
X1055620Y0164010D01*
X1054550Y0165080D01*
X1054550Y0168280D01*
X1053490Y0168280D02*
X1058820Y0168280D01*
X1058820Y0165080D01*
X1057760Y0164010D01*
X1052420Y0166150D02*
X1052420Y0167220D01*
X1053490Y0168280D01*
X1064550Y0168570D02*
X1064550Y0166440D01*
X1065620Y0165370D01*
X1067760Y0165370D01*
X1068820Y0166440D01*
X1068820Y0168570D01*
X1067760Y0169640D01*
X1065620Y0169640D01*
X1064550Y0168570D01*
X1064550Y0171810D02*
X1064550Y0172880D01*
X1065620Y0172880D01*
X1065620Y0171810D01*
X1064550Y0171810D01*
X1065620Y0175040D02*
X1064550Y0176110D01*
X1064550Y0178240D01*
X1065620Y0179310D01*
X1067760Y0179310D01*
X1068820Y0178240D01*
X1068820Y0176110D01*
X1067760Y0175040D01*
X1065620Y0175040D01*
X1064550Y0181480D02*
X1068820Y0181480D01*
X1066690Y0181480D02*
X1068820Y0183620D01*
X1068820Y0184690D01*
X1067760Y0186850D02*
X1065620Y0186850D01*
X1064550Y0187920D01*
X1064550Y0191120D01*
X1063490Y0191120D02*
X1062420Y0190060D01*
X1062420Y0188990D01*
X1063490Y0191120D02*
X1068820Y0191120D01*
X1068820Y0187920D01*
X1067760Y0186850D01*
X1067760Y0163190D02*
X1064550Y0163190D01*
X1064550Y0161060D02*
X1067760Y0161060D01*
X1068820Y0162130D01*
X1067760Y0163190D01*
X1067760Y0161060D02*
X1068820Y0159990D01*
X1068820Y0158920D01*
X1064550Y0158920D01*
X1066690Y0156750D02*
X1066690Y0152480D01*
X1067760Y0152480D02*
X1068820Y0153550D01*
X1068820Y0155680D01*
X1067760Y0156750D01*
X1066690Y0156750D01*
X1064550Y0155680D02*
X1064550Y0153550D01*
X1065620Y0152480D01*
X1067760Y0152480D01*
X1068820Y0150300D02*
X1068820Y0147100D01*
X1067760Y0146030D01*
X1065620Y0146030D01*
X1064550Y0147100D01*
X1064550Y0150300D01*
X1070960Y0150300D01*
X1064550Y0143860D02*
X1064550Y0139590D01*
X1064550Y0141720D02*
X1070960Y0141720D01*
X1068820Y0139590D01*
X1064550Y0137410D02*
X1064550Y0133140D01*
X1070960Y0133140D01*
X1069890Y0130970D02*
X1067760Y0130970D01*
X1066690Y0129900D01*
X1068820Y0129900D01*
X1068820Y0127760D01*
X1066690Y0127760D01*
X1066690Y0129900D01*
X1065620Y0130970D02*
X1064550Y0129900D01*
X1064550Y0127760D01*
X1065620Y0126700D01*
X1069890Y0126700D01*
X1070960Y0127760D01*
X1070960Y0129900D01*
X1069890Y0130970D01*
M02*
