M48
INCH,TZ
M72
T01C0.021650
T02C0.029550
T03C0.040000
T04C0.051200
T05C0.130000
%
T01
X1500Y1900
X1500Y2400
X2000Y2400
X8100Y3800
X8900Y4400
X11500Y2600
X13100Y2300
X13700Y2300
X13700Y1500
X14300Y1500
X14900Y1500
X15600Y2300
X16300Y2300
X15600Y3000
X15600Y4500
X16300Y4500
X17000Y4500
X17800Y4500
X17800Y5800
X15700Y5900
X15700Y6400
X15700Y7700
X15200Y7700
X16100Y8100
X16100Y8600
X15300Y9400
X15700Y10200
X17100Y11300
X17800Y11300
X18500Y11300
X15600Y12600
X14900Y12600
X13700Y11100
X13100Y11100
X11400Y12400
X9500Y13700
X9900Y14100
X10300Y14500
X10700Y14900
X11100Y15300
X9000Y15300
X9000Y15900
X9000Y16500
X9000Y17100
X9000Y17700
X8000Y19500
X8000Y20100
X7400Y20100
X6800Y20100
X5600Y16900
X6900Y16800
X3600Y14100
X3600Y13600
X3600Y13100
X2600Y13400
X2600Y14700
X2000Y14700
X1400Y14700
X1400Y15300
X2000Y15300
X3100Y15800
X3100Y16300
X3100Y16800
X3000Y17900
X3000Y18400
X6200Y13100
X5300Y12700
X5300Y12100
X3700Y10700
X3200Y10400
X3700Y10100
X3200Y11000
X2600Y11000
X2600Y10400
X10600Y9000
X10600Y8500
X11100Y8500
X11100Y9000
X13100Y8600
X13600Y8600
X13600Y7800
X13100Y7800
X13100Y4600
X13700Y4600
X13100Y1500
X17100Y14500
X17800Y14500
X18500Y14500
X15900Y15600
X15900Y16200
X15900Y16800
X15900Y17400
X14400Y17400
X14400Y16800
X14400Y18000
X2200Y3600
X3300Y4500
X3300Y5000
X3100Y5600
X4600Y6200
X4600Y6600
X4600Y7300
X4000Y8200
X3200Y9600
X3700Y11300
X4600Y12600
X7200Y10800
X7600Y9900
X8100Y10100
X9300Y10100
X10300Y9900
X11100Y9600
X10000Y8700
X9500Y8100
X9900Y7700
X10400Y7300
X10400Y6800
X11600Y4600
X13400Y3400
X15300Y3900
X13400Y6600
X15300Y7100
X13400Y9300
X13400Y10000
X15300Y9900
X15300Y10500
X15700Y13200
X15700Y14000
X15700Y14700
X13400Y14700
X13400Y14000
X13400Y13300
X11300Y11200
X10800Y10800
X9000Y13900
X9000Y14700
X12100Y15800
X12500Y16200
X5900Y9600
X6100Y7800
X5700Y6700
X6800Y6100
X7500Y6600
X6100Y4600
X5300Y4500
X4800Y4500
X4900Y3200
X4300Y3200
X1400Y7200
X21185Y1900
X21185Y2400
X21685Y2400
X27785Y3800
X28585Y4400
X31185Y2600
X32785Y2300
X33385Y2300
X33385Y1500
X33985Y1500
X34585Y1500
X35285Y2300
X35985Y2300
X35285Y3000
X35285Y4500
X35985Y4500
X36685Y4500
X37485Y4500
X37485Y5800
X35385Y5900
X35385Y6400
X35385Y7700
X34885Y7700
X35785Y8100
X35785Y8600
X34985Y9400
X35385Y10200
X36785Y11300
X37485Y11300
X38185Y11300
X35285Y12600
X34585Y12600
X33385Y11100
X32785Y11100
X31085Y12400
X29185Y13700
X29585Y14100
X29985Y14500
X30385Y14900
X30785Y15300
X28685Y15300
X28685Y15900
X28685Y16500
X28685Y17100
X28685Y17700
X27685Y19500
X27685Y20100
X27085Y20100
X26485Y20100
X25285Y16900
X26585Y16800
X23285Y14100
X23285Y13600
X23285Y13100
X22285Y13400
X22285Y14700
X21685Y14700
X21085Y14700
X21085Y15300
X21685Y15300
X22785Y15800
X22785Y16300
X22785Y16800
X22685Y17900
X22685Y18400
X25885Y13100
X24985Y12700
X24985Y12100
X23385Y10700
X22885Y10400
X23385Y10100
X22885Y11000
X22285Y11000
X22285Y10400
X30285Y9000
X30285Y8500
X30785Y8500
X30785Y9000
X32785Y8600
X33285Y8600
X33285Y7800
X32785Y7800
X32785Y4600
X33385Y4600
X32785Y1500
X36785Y14500
X37485Y14500
X38185Y14500
X35585Y15600
X35585Y16200
X35585Y16800
X35585Y17400
X34085Y17400
X34085Y16800
X34085Y18000
X21885Y3600
X22985Y4500
X22985Y5000
X22785Y5600
X24285Y6200
X24285Y6600
X24285Y7300
X23685Y8200
X22885Y9600
X23385Y11300
X24285Y12600
X26885Y10800
X27285Y9900
X27785Y10100
X28985Y10100
X29985Y9900
X30785Y9600
X29685Y8700
X29185Y8100
X29585Y7700
X30085Y7300
X30085Y6800
X31285Y4600
X33085Y3400
X34985Y3900
X33085Y6600
X34985Y7100
X33085Y9300
X33085Y10000
X34985Y9900
X34985Y10500
X35385Y13200
X35385Y14000
X35385Y14700
X33085Y14700
X33085Y14000
X33085Y13300
X30985Y11200
X30485Y10800
X28685Y13900
X28685Y14700
X31785Y15800
X32185Y16200
X25585Y9600
X25785Y7800
X25385Y6700
X26485Y6100
X27185Y6600
X25785Y4600
X24985Y4500
X24485Y4500
X24585Y3200
X23985Y3200
X21085Y7200
X40870Y1900
X40870Y2400
X41370Y2400
X47470Y3800
X48270Y4400
X50870Y2600
X52470Y2300
X53070Y2300
X53070Y1500
X53670Y1500
X54270Y1500
X54970Y2300
X55670Y2300
X54970Y3000
X54970Y4500
X55670Y4500
X56370Y4500
X57170Y4500
X57170Y5800
X55070Y5900
X55070Y6400
X55070Y7700
X54570Y7700
X55470Y8100
X55470Y8600
X54670Y9400
X55070Y10200
X56470Y11300
X57170Y11300
X57870Y11300
X54970Y12600
X54270Y12600
X53070Y11100
X52470Y11100
X50770Y12400
X48870Y13700
X49270Y14100
X49670Y14500
X50070Y14900
X50470Y15300
X48370Y15300
X48370Y15900
X48370Y16500
X48370Y17100
X48370Y17700
X47370Y19500
X47370Y20100
X46770Y20100
X46170Y20100
X44970Y16900
X46270Y16800
X42970Y14100
X42970Y13600
X42970Y13100
X41970Y13400
X41970Y14700
X41370Y14700
X40770Y14700
X40770Y15300
X41370Y15300
X42470Y15800
X42470Y16300
X42470Y16800
X42370Y17900
X42370Y18400
X45570Y13100
X44670Y12700
X44670Y12100
X43070Y10700
X42570Y10400
X43070Y10100
X42570Y11000
X41970Y11000
X41970Y10400
X49970Y9000
X49970Y8500
X50470Y8500
X50470Y9000
X52470Y8600
X52970Y8600
X52970Y7800
X52470Y7800
X52470Y4600
X53070Y4600
X52470Y1500
X56470Y14500
X57170Y14500
X57870Y14500
X55270Y15600
X55270Y16200
X55270Y16800
X55270Y17400
X53770Y17400
X53770Y16800
X53770Y18000
X41570Y3600
X42670Y4500
X42670Y5000
X42470Y5600
X43970Y6200
X43970Y6600
X43970Y7300
X43370Y8200
X42570Y9600
X43070Y11300
X43970Y12600
X46570Y10800
X46970Y9900
X47470Y10100
X48670Y10100
X49670Y9900
X50470Y9600
X49370Y8700
X48870Y8100
X49270Y7700
X49770Y7300
X49770Y6800
X50970Y4600
X52770Y3400
X54670Y3900
X52770Y6600
X54670Y7100
X52770Y9300
X52770Y10000
X54670Y9900
X54670Y10500
X55070Y13200
X55070Y14000
X55070Y14700
X52770Y14700
X52770Y14000
X52770Y13300
X50670Y11200
X50170Y10800
X48370Y13900
X48370Y14700
X51470Y15800
X51870Y16200
X45270Y9600
X45470Y7800
X45070Y6700
X46170Y6100
X46870Y6600
X45470Y4600
X44670Y4500
X44170Y4500
X44270Y3200
X43670Y3200
X40770Y7200
X60555Y1900
X60555Y2400
X61055Y2400
X67155Y3800
X67955Y4400
X70555Y2600
X72155Y2300
X72755Y2300
X72755Y1500
X73355Y1500
X73955Y1500
X74655Y2300
X75355Y2300
X74655Y3000
X74655Y4500
X75355Y4500
X76055Y4500
X76855Y4500
X76855Y5800
X74755Y5900
X74755Y6400
X74755Y7700
X74255Y7700
X75155Y8100
X75155Y8600
X74355Y9400
X74755Y10200
X76155Y11300
X76855Y11300
X77555Y11300
X74655Y12600
X73955Y12600
X72755Y11100
X72155Y11100
X70455Y12400
X68555Y13700
X68955Y14100
X69355Y14500
X69755Y14900
X70155Y15300
X68055Y15300
X68055Y15900
X68055Y16500
X68055Y17100
X68055Y17700
X67055Y19500
X67055Y20100
X66455Y20100
X65855Y20100
X64655Y16900
X65955Y16800
X62655Y14100
X62655Y13600
X62655Y13100
X61655Y13400
X61655Y14700
X61055Y14700
X60455Y14700
X60455Y15300
X61055Y15300
X62155Y15800
X62155Y16300
X62155Y16800
X62055Y17900
X62055Y18400
X65255Y13100
X64355Y12700
X64355Y12100
X62755Y10700
X62255Y10400
X62755Y10100
X62255Y11000
X61655Y11000
X61655Y10400
X69655Y9000
X69655Y8500
X70155Y8500
X70155Y9000
X72155Y8600
X72655Y8600
X72655Y7800
X72155Y7800
X72155Y4600
X72755Y4600
X72155Y1500
X76155Y14500
X76855Y14500
X77555Y14500
X74955Y15600
X74955Y16200
X74955Y16800
X74955Y17400
X73455Y17400
X73455Y16800
X73455Y18000
X61255Y3600
X62355Y4500
X62355Y5000
X62155Y5600
X63655Y6200
X63655Y6600
X63655Y7300
X63055Y8200
X62255Y9600
X62755Y11300
X63655Y12600
X66255Y10800
X66655Y9900
X67155Y10100
X68355Y10100
X69355Y9900
X70155Y9600
X69055Y8700
X68555Y8100
X68955Y7700
X69455Y7300
X69455Y6800
X70655Y4600
X72455Y3400
X74355Y3900
X72455Y6600
X74355Y7100
X72455Y9300
X72455Y10000
X74355Y9900
X74355Y10500
X74755Y13200
X74755Y14000
X74755Y14700
X72455Y14700
X72455Y14000
X72455Y13300
X70355Y11200
X69855Y10800
X68055Y13900
X68055Y14700
X71155Y15800
X71555Y16200
X64955Y9600
X65155Y7800
X64755Y6700
X65855Y6100
X66555Y6600
X65155Y4600
X64355Y4500
X63855Y4500
X63955Y3200
X63355Y3200
X60455Y7200
X80240Y1900
X80240Y2400
X80740Y2400
X86840Y3800
X87640Y4400
X90240Y2600
X91840Y2300
X92440Y2300
X92440Y1500
X93040Y1500
X93640Y1500
X94340Y2300
X95040Y2300
X94340Y3000
X94340Y4500
X95040Y4500
X95740Y4500
X96540Y4500
X96540Y5800
X94440Y5900
X94440Y6400
X94440Y7700
X93940Y7700
X94840Y8100
X94840Y8600
X94040Y9400
X94440Y10200
X95840Y11300
X96540Y11300
X97240Y11300
X94340Y12600
X93640Y12600
X92440Y11100
X91840Y11100
X90140Y12400
X88240Y13700
X88640Y14100
X89040Y14500
X89440Y14900
X89840Y15300
X87740Y15300
X87740Y15900
X87740Y16500
X87740Y17100
X87740Y17700
X86740Y19500
X86740Y20100
X86140Y20100
X85540Y20100
X84340Y16900
X85640Y16800
X82340Y14100
X82340Y13600
X82340Y13100
X81340Y13400
X81340Y14700
X80740Y14700
X80140Y14700
X80140Y15300
X80740Y15300
X81840Y15800
X81840Y16300
X81840Y16800
X81740Y17900
X81740Y18400
X84940Y13100
X84040Y12700
X84040Y12100
X82440Y10700
X81940Y10400
X82440Y10100
X81940Y11000
X81340Y11000
X81340Y10400
X89340Y9000
X89340Y8500
X89840Y8500
X89840Y9000
X91840Y8600
X92340Y8600
X92340Y7800
X91840Y7800
X91840Y4600
X92440Y4600
X91840Y1500
X95840Y14500
X96540Y14500
X97240Y14500
X94640Y15600
X94640Y16200
X94640Y16800
X94640Y17400
X93140Y17400
X93140Y16800
X93140Y18000
X80940Y3600
X82040Y4500
X82040Y5000
X81840Y5600
X83340Y6200
X83340Y6600
X83340Y7300
X82740Y8200
X81940Y9600
X82440Y11300
X83340Y12600
X85940Y10800
X86340Y9900
X86840Y10100
X88040Y10100
X89040Y9900
X89840Y9600
X88740Y8700
X88240Y8100
X88640Y7700
X89140Y7300
X89140Y6800
X90340Y4600
X92140Y3400
X94040Y3900
X92140Y6600
X94040Y7100
X92140Y9300
X92140Y10000
X94040Y9900
X94040Y10500
X94440Y13200
X94440Y14000
X94440Y14700
X92140Y14700
X92140Y14000
X92140Y13300
X90040Y11200
X89540Y10800
X87740Y13900
X87740Y14700
X90840Y15800
X91240Y16200
X84640Y9600
X84840Y7800
X84440Y6700
X85540Y6100
X86240Y6600
X84840Y4600
X84040Y4500
X83540Y4500
X83640Y3200
X83040Y3200
X80140Y7200
X99925Y1900
X99925Y2400
X100425Y2400
X106525Y3800
X107325Y4400
X109925Y2600
X111525Y2300
X112125Y2300
X112125Y1500
X112725Y1500
X113325Y1500
X114025Y2300
X114725Y2300
X114025Y3000
X114025Y4500
X114725Y4500
X115425Y4500
X116225Y4500
X116225Y5800
X114125Y5900
X114125Y6400
X114125Y7700
X113625Y7700
X114525Y8100
X114525Y8600
X113725Y9400
X114125Y10200
X115525Y11300
X116225Y11300
X116925Y11300
X114025Y12600
X113325Y12600
X112125Y11100
X111525Y11100
X109825Y12400
X107925Y13700
X108325Y14100
X108725Y14500
X109125Y14900
X109525Y15300
X107425Y15300
X107425Y15900
X107425Y16500
X107425Y17100
X107425Y17700
X106425Y19500
X106425Y20100
X105825Y20100
X105225Y20100
X104025Y16900
X105325Y16800
X102025Y14100
X102025Y13600
X102025Y13100
X101025Y13400
X101025Y14700
X100425Y14700
X99825Y14700
X99825Y15300
X100425Y15300
X101525Y15800
X101525Y16300
X101525Y16800
X101425Y17900
X101425Y18400
X104625Y13100
X103725Y12700
X103725Y12100
X102125Y10700
X101625Y10400
X102125Y10100
X101625Y11000
X101025Y11000
X101025Y10400
X109025Y9000
X109025Y8500
X109525Y8500
X109525Y9000
X111525Y8600
X112025Y8600
X112025Y7800
X111525Y7800
X111525Y4600
X112125Y4600
X111525Y1500
X115525Y14500
X116225Y14500
X116925Y14500
X114325Y15600
X114325Y16200
X114325Y16800
X114325Y17400
X112825Y17400
X112825Y16800
X112825Y18000
X100625Y3600
X101725Y4500
X101725Y5000
X101525Y5600
X103025Y6200
X103025Y6600
X103025Y7300
X102425Y8200
X101625Y9600
X102125Y11300
X103025Y12600
X105625Y10800
X106025Y9900
X106525Y10100
X107725Y10100
X108725Y9900
X109525Y9600
X108425Y8700
X107925Y8100
X108325Y7700
X108825Y7300
X108825Y6800
X110025Y4600
X111825Y3400
X113725Y3900
X111825Y6600
X113725Y7100
X111825Y9300
X111825Y10000
X113725Y9900
X113725Y10500
X114125Y13200
X114125Y14000
X114125Y14700
X111825Y14700
X111825Y14000
X111825Y13300
X109725Y11200
X109225Y10800
X107425Y13900
X107425Y14700
X110525Y15800
X110925Y16200
X104325Y9600
X104525Y7800
X104125Y6700
X105225Y6100
X105925Y6600
X104525Y4600
X103725Y4500
X103225Y4500
X103325Y3200
X102725Y3200
X99825Y7200
T02
X6400Y15000
X6400Y15700
X5400Y14900
X4700Y14900
X4000Y14900
X9300Y18900
X10300Y18900
X11300Y18900
X12300Y18900
X13300Y18900
X13300Y19900
X12300Y19900
X11300Y19900
X10300Y19900
X9300Y19900
X5700Y19900
X4700Y19900
X15500Y8300
X26085Y15000
X26085Y15700
X25085Y14900
X24385Y14900
X23685Y14900
X28985Y18900
X29985Y18900
X30985Y18900
X31985Y18900
X32985Y18900
X32985Y19900
X31985Y19900
X30985Y19900
X29985Y19900
X28985Y19900
X25385Y19900
X24385Y19900
X35185Y8300
X45770Y15000
X45770Y15700
X44770Y14900
X44070Y14900
X43370Y14900
X48670Y18900
X49670Y18900
X50670Y18900
X51670Y18900
X52670Y18900
X52670Y19900
X51670Y19900
X50670Y19900
X49670Y19900
X48670Y19900
X45070Y19900
X44070Y19900
X54870Y8300
X65455Y15000
X65455Y15700
X64455Y14900
X63755Y14900
X63055Y14900
X68355Y18900
X69355Y18900
X70355Y18900
X71355Y18900
X72355Y18900
X72355Y19900
X71355Y19900
X70355Y19900
X69355Y19900
X68355Y19900
X64755Y19900
X63755Y19900
X74555Y8300
X85140Y15000
X85140Y15700
X84140Y14900
X83440Y14900
X82740Y14900
X88040Y18900
X89040Y18900
X90040Y18900
X91040Y18900
X92040Y18900
X92040Y19900
X91040Y19900
X90040Y19900
X89040Y19900
X88040Y19900
X84440Y19900
X83440Y19900
X94240Y8300
X104825Y15000
X104825Y15700
X103825Y14900
X103125Y14900
X102425Y14900
X107725Y18900
X108725Y18900
X109725Y18900
X110725Y18900
X111725Y18900
X111725Y19900
X110725Y19900
X109725Y19900
X108725Y19900
X107725Y19900
X104125Y19900
X103125Y19900
X113925Y8300
T03
X17000Y9701
X17800Y10150
X18600Y9701
X17800Y9248
X18600Y8799
X17800Y8346
X18600Y7898
X17800Y7445
X18600Y6996
X17800Y6543
X18600Y6094
X17000Y6094
X17000Y6996
X17000Y7898
X17000Y8799
X7200Y1700
X6200Y1700
X5200Y1700
X4200Y1700
X3200Y1700
X2200Y1700
X36685Y9701
X37485Y10150
X38285Y9701
X37485Y9248
X38285Y8799
X37485Y8346
X38285Y7898
X37485Y7445
X38285Y6996
X37485Y6543
X38285Y6094
X36685Y6094
X36685Y6996
X36685Y7898
X36685Y8799
X26885Y1700
X25885Y1700
X24885Y1700
X23885Y1700
X22885Y1700
X21885Y1700
X56370Y9701
X57170Y10150
X57970Y9701
X57170Y9248
X57970Y8799
X57170Y8346
X57970Y7898
X57170Y7445
X57970Y6996
X57170Y6543
X57970Y6094
X56370Y6094
X56370Y6996
X56370Y7898
X56370Y8799
X46570Y1700
X45570Y1700
X44570Y1700
X43570Y1700
X42570Y1700
X41570Y1700
X76055Y9701
X76855Y10150
X77655Y9701
X76855Y9248
X77655Y8799
X76855Y8346
X77655Y7898
X76855Y7445
X77655Y6996
X76855Y6543
X77655Y6094
X76055Y6094
X76055Y6996
X76055Y7898
X76055Y8799
X66255Y1700
X65255Y1700
X64255Y1700
X63255Y1700
X62255Y1700
X61255Y1700
X95740Y9701
X96540Y10150
X97340Y9701
X96540Y9248
X97340Y8799
X96540Y8346
X97340Y7898
X96540Y7445
X97340Y6996
X96540Y6543
X97340Y6094
X95740Y6094
X95740Y6996
X95740Y7898
X95740Y8799
X85940Y1700
X84940Y1700
X83940Y1700
X82940Y1700
X81940Y1700
X80940Y1700
X115425Y9701
X116225Y10150
X117025Y9701
X116225Y9248
X117025Y8799
X116225Y8346
X117025Y7898
X116225Y7445
X117025Y6996
X116225Y6543
X117025Y6094
X115425Y6094
X115425Y6996
X115425Y7898
X115425Y8799
X105625Y1700
X104625Y1700
X103625Y1700
X102625Y1700
X101625Y1700
X100625Y1700
T04
X17432Y15531
X17432Y16516
X19400Y17500
X17432Y18484
X17432Y19469
X37117Y15531
X37117Y16516
X39085Y17500
X37117Y18484
X37117Y19469
X56802Y15531
X56802Y16516
X58770Y17500
X56802Y18484
X56802Y19469
X76487Y15531
X76487Y16516
X78455Y17500
X76487Y18484
X76487Y19469
X96172Y15531
X96172Y16516
X98140Y17500
X96172Y18484
X96172Y19469
X115857Y15531
X115857Y16516
X117825Y17500
X115857Y18484
X115857Y19469
T05
X17800Y12921
X17800Y3079
X37485Y12921
X37485Y3079
X57170Y12921
X57170Y3079
X76855Y12921
X76855Y3079
X96540Y12921
X96540Y3079
X116225Y12921
X116225Y3079
M30
